<svg width="35" height="36" viewBox="0 0 35 36" fill="none" xmlns="http://www.w3.org/2000/svg">
<path d="M2.39593 24.2113C3.35718 29.0176 3.8378 31.4207 5.42591 32.9685C5.71943 33.2545 6.03697 33.5149 6.37505 33.7466C8.20421 35.0003 10.6549 35.0003 15.5564 35.0003H18.6037C23.5052 35.0003 25.9559 35.0003 27.785 33.7466C28.1231 33.5149 28.4407 33.2545 28.7342 32.9685C30.3223 31.4207 30.8029 29.0176 31.7641 24.2113C33.1442 17.3111 33.8342 13.861 32.2458 11.4163C31.9582 10.9736 31.6225 10.5641 31.2448 10.1953C29.159 8.1582 25.6406 8.1582 18.6037 8.1582H15.5564C8.51948 8.1582 5.00105 8.1582 2.91528 10.1953C2.53762 10.5641 2.20192 10.9736 1.91431 11.4163C0.325865 13.861 1.01589 17.3111 2.39593 24.2113Z" stroke="#6A4BA7" stroke-width="2"/>
<circle cx="22.4496" cy="15.3149" r="1.78947" fill="#6A4BA7"/>
<circle cx="11.7113" cy="15.3149" r="1.78947" fill="#6A4BA7"/>
<path d="M11.7109 8.15789V6.36842C11.7109 3.40352 14.1145 1 17.0794 1C20.0443 1 22.4478 3.40352 22.4478 6.36842V8.15789" stroke="#6A4BA7" stroke-width="2" stroke-linecap="round"/>
</svg>
