<svg width="78" height="78" viewBox="0 0 78 78" fill="none" xmlns="http://www.w3.org/2000/svg">
<path d="M29.2422 6.34766C25.6509 6.34766 22.7422 9.25771 22.7422 12.8477L22.7455 13.2799C17.1717 14.7457 12.9922 19.814 12.9922 25.8477V51.8476C12.9922 57.8813 17.2172 62.9737 22.7909 64.4391L22.7422 64.8476C22.7422 68.4376 25.6509 71.3476 29.2422 71.3476H48.7422C52.3334 71.3476 55.2422 68.4376 55.2422 64.8476C55.2422 64.7716 55.2747 64.6406 55.2747 64.4485C60.8484 62.9825 64.9922 57.8813 64.9922 51.8476V48.5976C66.7862 48.5976 68.2422 47.1426 68.2422 45.3476V32.3477C68.2422 30.5527 66.7862 29.0977 64.9922 29.0977V25.8477C64.9922 19.814 60.8549 14.7684 55.2844 13.3027C55.2844 13.1103 55.2422 12.9237 55.2422 12.8477C55.2422 9.25771 52.3334 6.34766 48.7422 6.34766H29.2422ZM25.9922 19.3477H51.9922C55.5834 19.3477 58.4922 22.2577 58.4922 25.8477V51.8476C58.4922 55.4376 55.5834 58.3476 51.9922 58.3476H25.9922C22.4009 58.3476 19.4922 55.4376 19.4922 51.8476V25.8477C19.4922 22.2577 22.4009 19.3477 25.9922 19.3477ZM38.9922 25.8477C37.1982 25.8477 35.7422 27.3027 35.7422 29.0977V35.5977H29.2422C27.4482 35.5977 25.9922 37.0527 25.9922 38.8477C25.9922 40.6426 27.4482 42.0977 29.2422 42.0977H38.9922C40.7862 42.0977 42.2422 40.6426 42.2422 38.8477V29.0977C42.2422 27.3027 40.7862 25.8477 38.9922 25.8477Z" fill="#9C96A9"/>
</svg>
