<svg width="96" height="96" viewBox="0 0 96 96" fill="none" xmlns="http://www.w3.org/2000/svg">
<path d="M25.1843 24.4131C28.7605 24.4131 32.0034 25.8349 34.3562 28.131C36.726 30.443 38.192 33.6371 38.192 37.1623C38.192 40.6863 36.726 43.8804 34.3562 46.1935C33.3527 47.1721 32.1882 47.9918 30.9035 48.6098L31.4138 48.7357L31.5181 48.7742C32.6939 49.2073 33.6713 49.662 34.5977 50.1723C35.5161 50.678 36.3484 51.2143 37.26 51.8311L37.3961 51.9332C38.2816 52.6373 38.9449 53.2666 39.4971 53.9775C40.0754 54.7202 40.5029 55.5071 40.8952 56.4992C41.1571 57.0957 41.3725 57.6785 41.5517 58.2601C42.003 57.0265 42.198 56.76 42.9588 55.7135L43.2774 55.2769C43.443 55.0513 43.672 54.7644 43.9022 54.4764C44.2015 54.1034 44.5043 53.7247 45.2107 52.6509L45.3604 52.4219L48.6894 49.3015L53.7351 46.5292L58.435 45.1515L59.6845 45.1379C57.0097 44.3941 54.6161 42.9904 52.6999 41.1195C49.7598 38.2497 47.941 34.2879 47.941 29.9146C47.941 25.5413 49.7598 21.5784 52.6987 18.7109C55.6218 15.858 59.6516 14.0938 64.0964 14.0938C68.5411 14.0938 72.5709 15.858 75.494 18.7109C78.433 21.5784 80.2506 25.5413 80.2506 29.9146C80.2506 34.2879 78.433 38.2497 75.4929 41.1195C73.3317 43.2307 70.5605 44.7456 67.4662 45.3908L68.6228 45.4724C69.1852 45.5393 69.675 45.5495 70.1626 45.5608C71.4846 45.5892 72.8101 45.6187 74.4509 46.2083C75.3398 46.4555 76.0235 46.6868 76.6891 47.0122C77.4238 47.3716 78.0554 47.8002 78.7913 48.4227C79.6746 49.2198 80.6089 50.0997 81.4513 50.9376C81.6577 51.1678 81.8935 51.3855 82.1283 51.6009C82.7632 52.186 83.4005 52.7722 84.0093 53.804L86.3825 56.98L86.5515 57.1909C87.5901 58.4393 88.2659 59.2579 88.4394 61.2796L88.8464 64.4182L89.0732 68.4967L84.7225 68.7359L84.498 64.7153L84.0887 61.6379C84.032 60.9837 83.7009 60.5823 83.1941 59.9689C83.1941 59.9473 82.9356 59.648 82.8846 59.5913L80.4365 56.3144L80.3277 56.1194C80.0476 55.6114 79.6111 55.21 79.1757 54.8098C78.8695 54.5275 78.5611 54.2429 78.2493 53.9016L75.943 51.7211C75.4872 51.3402 75.1346 51.0941 74.7785 50.9195C74.3749 50.7233 73.8805 50.5623 73.1877 50.373L73.0176 50.3219C72.0085 49.9534 71.0424 49.9319 70.0775 49.9115C69.4165 49.8967 68.7532 49.882 68.1193 49.8083L63.0782 49.4534L59.0881 49.4954L55.4518 50.5612L51.2587 52.8652L48.6917 55.2713C47.9989 56.3133 47.6462 56.7544 47.2981 57.1898C47.187 57.3281 47.0748 57.4676 46.7992 57.844L46.4908 58.2726C45.9364 59.0368 45.8513 59.1525 45.459 60.2716L44.1959 64.0519L43.0745 68.9616L40.5425 68.3912H38.0412V62.6777C37.912 61.8205 37.7827 61.0393 37.6217 60.3691C37.4482 59.648 37.2203 58.9405 36.8847 58.2057L36.8337 58.1037C36.5956 57.5016 36.354 57.0469 36.0502 56.6557C35.7361 56.2521 35.3268 55.8643 34.7678 55.413C33.9559 54.8665 33.2302 54.3971 32.4989 53.9945C31.7857 53.6022 31.0305 53.2485 30.1223 52.9094C29.2742 52.6997 28.5394 52.5851 27.8047 52.5262C26.9452 52.4581 26.1288 52.4547 25.1843 52.4672H25.1242C24.1003 52.4479 23.0776 52.5568 22.0639 52.7382V52.7473C20.9584 52.9446 19.9436 53.1986 18.9685 53.465C18.3448 53.702 17.7552 54.083 17.1849 54.5445C16.5261 55.0751 15.8764 55.735 15.221 56.421L15.1451 56.4981C14.5452 57.0707 13.95 57.6683 13.4545 58.293C13.0213 58.8327 12.6676 59.3974 12.4635 59.9825L12.4465 60.0335C12.0995 60.9678 12.1573 62.1176 12.2185 63.3376C12.2356 63.7004 12.2548 64.0667 12.2662 64.5826L7.91552 64.6676C7.90872 64.383 7.88718 63.9567 7.86677 63.5428C7.78399 61.8749 7.70462 60.3011 8.36793 58.5141C8.75345 57.429 9.34646 56.4664 10.0415 55.5888V55.5808C10.6708 54.786 11.3863 54.0637 12.1006 53.3788C12.849 52.5953 13.6064 51.8334 14.4545 51.1485C15.3798 50.4002 16.3923 49.7686 17.5715 49.3434L17.7337 49.2924C18.4231 49.103 19.1125 48.9205 19.7905 48.7617C18.3777 48.1279 17.101 47.2537 16.0136 46.1924C13.6438 43.8793 12.1777 40.6863 12.1777 37.1623C12.1777 33.6382 13.645 30.4441 16.0136 28.131C18.3652 25.8349 21.6104 24.4131 25.1843 24.4131ZM31.3185 31.2526C29.7549 29.7264 27.587 28.7819 25.1843 28.7819C22.7839 28.7819 20.6148 29.7275 19.0512 31.2537C17.5046 32.7629 16.5465 34.8537 16.5465 37.1623C16.5465 39.4708 17.5035 41.5605 19.0501 43.0697C20.6137 44.597 22.7839 45.5416 25.1843 45.5416C27.587 45.5416 29.7561 44.597 31.3197 43.0709C32.8663 41.5605 33.8233 39.472 33.8233 37.1623C33.8233 34.8526 32.8663 32.7629 31.3185 31.2526ZM72.4564 21.8324C70.3224 19.7506 67.3676 18.4625 64.0964 18.4625C60.8252 18.4625 57.8692 19.7506 55.7364 21.8324C53.6194 23.8983 52.3098 26.7568 52.3098 29.9146C52.3098 33.0724 53.6206 35.9309 55.7364 37.9968C57.8692 40.0797 60.8252 41.3689 64.0964 41.3689C67.3676 41.3689 70.3224 40.0797 72.4564 37.9968C74.5722 35.9309 75.8829 33.0724 75.8829 29.9146C75.8829 26.7568 74.5733 23.8983 72.4564 21.8324Z" fill="#9C96A9"/>
</svg>
