<svg width="97" height="97" viewBox="0 0 97 97" fill="none" xmlns="http://www.w3.org/2000/svg">
<path d="M38.767 67.2829C37.4415 67.2887 36.3623 66.2174 36.3565 64.8919C36.3519 63.5652 37.4232 62.486 38.7487 62.4814L80.755 62.211C82.0805 62.2064 83.1598 63.2765 83.1644 64.6032C83.1701 65.9287 82.0989 67.008 80.7733 67.0126L38.767 67.2829ZM13.5655 65.6228C12.6089 64.7029 12.5791 63.1803 13.4991 62.2236C14.4191 61.267 15.9417 61.2383 16.8983 62.1583C17.9672 63.1883 18.8173 64.1163 19.4898 64.8507C20.0661 65.4808 19.1381 66.0868 19.7419 65.9368C19.7854 65.9265 20.5026 65.1737 21.8935 63.7153C23.0334 62.5192 24.54 60.9393 26.6354 58.9137C27.5921 57.9926 29.1135 58.0224 30.0347 58.9791C30.9547 59.9357 30.9249 61.4583 29.9682 62.3783C27.9724 64.3087 26.4945 65.8577 25.3775 67.0297C23.3473 69.1596 22.2991 70.2571 20.891 70.6077C18.7417 71.1416 17.8298 70.1448 15.9497 68.0895C15.3666 67.4525 14.6287 66.6471 13.5655 65.6228ZM38.767 50.202C37.4415 50.2066 36.3623 49.1365 36.3565 47.8098C36.3519 46.4843 37.4232 45.4051 38.7487 45.3993L80.755 45.129C82.0805 45.1244 83.1598 46.1956 83.1644 47.5211C83.1701 48.8467 82.0989 49.9259 80.7733 49.9316L38.767 50.202ZM13.5655 48.5408C12.6089 47.6208 12.5791 46.0993 13.4991 45.1427C14.4191 44.1861 15.9417 44.1563 16.8983 45.0763C17.887 46.0283 18.7096 46.9162 19.3696 47.6288C19.9985 48.3082 19.1908 48.9154 19.7476 48.7768C19.8358 48.755 20.6023 47.9588 22.0917 46.411C23.2133 45.2458 24.6683 43.7335 26.6354 41.8317C27.5921 40.9117 29.1135 40.9415 30.0347 41.8981C30.9547 42.8536 30.9249 44.3762 29.9682 45.2962C28.0733 47.1293 26.6515 48.6061 25.5574 49.7437C23.431 51.9526 22.3346 53.0903 20.8967 53.4477C18.7211 53.9873 17.7805 52.9734 15.8477 50.886C15.2852 50.2788 14.5841 49.5215 13.5655 48.5408ZM38.767 32.4085C37.4415 32.4131 36.3623 31.343 36.3565 30.0163C36.3519 28.6908 37.4232 27.6115 38.7487 27.6058L80.755 27.3354C82.0805 27.3308 83.1598 28.402 83.1644 29.7276C83.1701 31.0531 82.0989 32.1324 80.7733 32.1381L38.767 32.4085ZM13.5655 30.7484C12.6089 29.8273 12.5791 28.3058 13.4991 27.3492C14.4191 26.3925 15.9417 26.3627 16.8983 27.2827C17.7083 28.0629 18.3614 28.7354 18.9136 29.3037C19.8038 30.2202 19.436 30.8572 19.8336 30.7587C20.0295 30.7106 20.8956 29.8215 22.5603 28.1168C23.612 27.0387 24.9284 25.6891 26.6354 24.0382C27.5921 23.1182 29.1135 23.148 30.0347 24.1046C30.9547 25.0612 30.9249 26.5827 29.9682 27.5027C28.323 29.0952 27.0353 30.415 26.0065 31.469C23.7094 33.8223 22.5121 35.0481 20.9827 35.4285C18.7096 35.9922 17.6591 34.9106 15.4674 32.656C14.9392 32.1129 14.3148 31.469 13.5655 30.7484Z" fill="#9C96A9"/>
</svg>
