<svg width="130" height="126" viewBox="0 0 130 126" fill="none" xmlns="http://www.w3.org/2000/svg">
<path d="M70.0066 49.2226L68.7238 44.8327L65.8393 40.194L65.3122 39.5907C64.0842 38.1886 63.1409 37.3482 62.0471 36.8374C60.9067 36.3058 59.3884 36.0217 57.0528 35.7507L54.0163 35.5526C52.3776 35.6803 48.699 36.7605 45.7364 39.1138C44.6042 40.0128 43.6048 41.0957 42.9217 42.3713C42.2563 43.6144 41.8812 45.0659 41.9661 46.7429C42.129 49.9314 43.9033 53.9604 48.3143 58.9926L48.3786 59.0656L87.804 59.1073C94.4685 52.7668 96.0374 45.939 94.4959 40.6982C93.8647 38.5548 92.7161 36.6797 91.1924 35.2308C89.7001 33.8105 87.8396 32.7941 85.7532 32.3355C81.3244 31.3608 75.8072 32.8801 70.394 38.2525L73.3128 42.9459L74.7804 47.9665L70.0066 49.2226ZM64.2197 32.6078C65.3163 33.1199 66.2596 33.7597 67.2056 34.6105C71.5988 30.3796 76.1714 28.1801 80.4619 27.5391C79.5351 23.8372 76.7381 21.5569 73.3265 20.551C71.2894 19.9503 69.0277 19.777 66.7825 20.0037C64.5223 20.2317 62.3031 20.8624 60.3659 21.8618V21.8722C56.8885 23.6678 54.3065 26.7143 54.1258 30.8292C55.2868 30.9087 56.4505 30.9699 57.61 31.0572C60.485 31.3895 62.4523 31.7843 64.2197 32.6078ZM42.5548 35.494C44.6234 33.8522 47.0329 32.6834 49.174 31.9263C48.851 25.3018 52.6842 20.4611 57.9975 17.7156L58.0016 17.7234C60.5261 16.4204 63.3805 15.6047 66.2568 15.3128C69.151 15.021 72.0957 15.2516 74.7818 16.0438C80.1511 17.627 84.4814 21.3562 85.5109 27.4961C85.9668 27.5586 86.4158 27.6381 86.8594 27.7358C89.8754 28.3991 92.5587 29.8623 94.7039 31.9055C96.8191 33.9199 98.4072 36.4973 99.2683 39.4252C101.275 46.2452 99.3614 54.9897 90.9295 62.7987C88.3174 69.4532 85.708 76.0308 83.0056 82.6502L82.9864 82.7153L76.9558 96.3918L74.0713 103.351L71.1634 110.936L63.913 110.67L58.8326 97.1319C54.2846 86.958 52.3954 82.4404 48.8879 72.1648L44.2825 61.7576C39.265 55.9592 37.2265 51.0481 37.0184 46.9631C36.887 44.3897 37.4675 42.1524 38.4983 40.2305C39.5087 38.3398 40.9462 36.7722 42.5548 35.494ZM50.5444 63.7773L53.5905 70.6702L57.4759 82.0521L63.5092 95.5448L67.4643 106.085L67.745 106.095C71.0389 97.5007 74.6791 89.3412 78.407 80.8872L78.4125 80.8885L81.8857 72.3772L85.248 63.8138L50.5444 63.7773Z" fill="#9C96A9"/>
</svg>
