<svg width="37" height="25" viewBox="0 0 37 25" fill="none" xmlns="http://www.w3.org/2000/svg">
<path d="M13.9839 22.6819C13.3006 22.6849 12.7443 22.1327 12.7413 21.4494C12.739 20.7655 13.2911 20.2092 13.9744 20.2069L35.6271 20.0675C36.3104 20.0652 36.8667 20.6167 36.8691 21.3006C36.872 21.9839 36.3199 22.5402 35.6366 22.5425L13.9839 22.6819ZM0.993395 21.8262C0.500281 21.352 0.484926 20.5671 0.959142 20.074C1.43336 19.5809 2.21821 19.5661 2.71132 20.0403C3.26231 20.5713 3.7005 21.0496 4.04716 21.4282C4.34421 21.753 3.86586 22.0654 4.17708 21.988C4.19952 21.9827 4.56921 21.5947 5.28615 20.8429C5.87375 20.2264 6.65033 19.412 7.73046 18.3679C8.22357 17.8931 9.00783 17.9084 9.48263 18.4016C9.95685 18.8947 9.9415 19.6795 9.44838 20.1537C8.41963 21.1488 7.65782 21.9473 7.08202 22.5514C6.03556 23.6492 5.4952 24.215 4.76941 24.3957C3.66153 24.6709 3.19144 24.1571 2.22234 23.0977C1.92175 22.7693 1.54143 22.3541 0.993395 21.8262ZM13.9839 13.8773C13.3006 13.8797 12.7443 13.3281 12.7413 12.6442C12.739 11.961 13.2911 11.4046 13.9744 11.4017L35.6271 11.2623C36.3104 11.26 36.8667 11.8121 36.8691 12.4954C36.872 13.1787 36.3199 13.735 35.6366 13.7379L13.9839 13.8773ZM0.993395 13.021C0.500281 12.5468 0.484926 11.7625 0.959142 11.2694C1.43336 10.7763 2.21821 10.7609 2.71132 11.2352C3.22097 11.7259 3.64499 12.1836 3.98515 12.5509C4.30937 12.9011 3.89302 13.2141 4.18003 13.1427C4.22551 13.1314 4.62059 12.721 5.38831 11.9232C5.96646 11.3226 6.71647 10.543 7.73046 9.56271C8.22357 9.08849 9.00783 9.10384 9.48263 9.59696C9.95685 10.0895 9.9415 10.8743 9.44838 11.3485C8.4716 12.2934 7.73872 13.0547 7.17474 13.6411C6.07867 14.7797 5.51351 15.3661 4.77236 15.5504C3.6509 15.8285 3.16605 15.3059 2.16978 14.2299C1.87982 13.9169 1.5184 13.5265 0.993395 13.021ZM13.9839 4.70538C13.3006 4.70775 12.7443 4.15617 12.7413 3.4723C12.739 2.78903 13.2911 2.23273 13.9744 2.22977L35.6271 2.0904C36.3104 2.08804 36.8667 2.64021 36.8691 3.32348C36.872 4.00676 36.3199 4.56306 35.6366 4.56601L13.9839 4.70538ZM0.993395 3.84967C0.500281 3.37486 0.484926 2.5906 0.959142 2.09749C1.43336 1.60438 2.21821 1.58902 2.71132 2.06324C3.12884 2.46541 3.46546 2.81206 3.75011 3.10498C4.20897 3.57742 4.0194 3.90577 4.22433 3.85498C4.32531 3.83018 4.77177 3.37191 5.62985 2.49316C6.17198 1.93745 6.85053 1.24177 7.73046 0.390784C8.22357 -0.0834328 9.00783 -0.0680792 9.48263 0.425035C9.95685 0.918149 9.9415 1.70241 9.44838 2.17662C8.60034 2.9975 7.93656 3.67782 7.40624 4.22113C6.22218 5.43413 5.60504 6.06602 4.81665 6.26209C3.64499 6.55264 3.10345 5.99516 1.97372 4.83294C1.70147 4.55302 1.37962 4.22113 0.993395 3.84967Z" fill="black"/>
</svg>
